<svg width="388" height="281" viewBox="0 0 388 281" fill="none" xmlns="http://www.w3.org/2000/svg">
<g clip-path="url(#clip0)">
<path d="M166.286 262.795C239.015 262.795 297.973 203.966 297.973 131.397C297.973 58.8286 239.015 0 166.286 0C93.5572 0 34.5989 58.8286 34.5989 131.397C34.5989 203.966 93.5572 262.795 166.286 262.795Z" fill="#F2F2F2"/>
<path d="M52.2511 281C81.1086 281 104.502 277.265 104.502 272.658C104.502 268.051 81.1086 264.316 52.2511 264.316C23.3936 264.316 0 268.051 0 272.658C0 277.265 23.3936 281 52.2511 281Z" fill="#F2F2F2"/>
<path d="M307.152 272.521C351.803 272.521 388 266.742 388 259.613C388 252.485 351.803 246.706 307.152 246.706C262.501 246.706 226.304 252.485 226.304 259.613C226.304 266.742 262.501 272.521 307.152 272.521Z" fill="#F2F2F2"/>
<path d="M289.189 135.549C289.189 135.549 289.877 137.838 285.977 139.898C282.077 141.959 280.929 149.742 285.518 152.032C290.107 154.321 291.483 157.297 289.189 159.358C286.895 161.418 282.765 166.912 288.271 168.286C293.778 169.66 294.466 172.407 292.86 173.551C291.254 174.696 296.531 171.491 296.531 171.491C296.531 171.491 297.449 176.985 302.267 175.612C307.085 174.238 320.622 148.14 313.739 144.477C306.856 140.814 289.189 135.549 289.189 135.549Z" fill="#2F2E41"/>
<path d="M297.505 157.655C297.505 157.655 299.885 165.966 295.72 166.56C293.135 166.962 290.686 167.98 288.58 169.528L296.315 179.621H310.595L319.52 170.715C319.52 170.715 307.62 161.81 310 156.467C312.38 151.124 297.505 157.655 297.505 157.655Z" fill="#FFB9B9"/>
<path opacity="0.1" d="M297.505 157.655C297.505 157.655 299.885 165.966 295.72 166.56C293.135 166.962 290.686 167.98 288.58 169.528L296.315 179.621H310.595L319.52 170.715C319.52 170.715 307.62 161.81 310 156.467C312.38 151.124 297.505 157.655 297.505 157.655Z" fill="black"/>
<path d="M301.075 260.955L314.76 265.705L324.279 266.298L323.685 257.987L304.05 252.193L301.075 260.955Z" fill="#FFB9B9"/>
<path d="M318.627 259.174C318.627 259.174 318.627 267.486 319.817 267.486C321.007 267.486 337.072 265.705 341.832 267.486C346.592 269.267 353.732 262.736 350.162 259.174C346.592 255.612 340.769 250.269 337.135 251.456C333.502 252.644 318.627 255.612 318.627 255.612V259.174Z" fill="#575A89"/>
<path d="M274.895 251.456C274.895 251.456 267.755 265.705 272.515 266.892C277.275 268.079 282.63 266.298 283.225 265.705C283.82 265.111 292.15 262.736 293.34 263.923C294.53 265.111 294.53 259.174 294.53 259.174L274.895 251.456Z" fill="#575A89"/>
<path d="M280.845 231.865C280.845 231.865 269.54 247.3 277.87 251.456C286.2 255.612 326.064 255.612 329.039 251.456C332.014 247.3 333.204 234.239 329.039 233.052C324.874 231.865 280.845 231.865 280.845 231.865Z" fill="#2F2E41"/>
<path opacity="0.2" d="M280.845 231.865C280.845 231.865 269.54 247.3 277.87 251.456C286.2 255.612 326.064 255.612 329.039 251.456C332.014 247.3 333.204 234.239 329.039 233.052C324.874 231.865 280.845 231.865 280.845 231.865Z" fill="black"/>
<path d="M302.265 161.81C309.823 161.81 315.95 155.697 315.95 148.156C315.95 140.614 309.823 134.501 302.265 134.501C294.707 134.501 288.58 140.614 288.58 148.156C288.58 155.697 294.707 161.81 302.265 161.81Z" fill="#FFB9B9"/>
<path d="M280.845 169.528L292.745 167.153C292.745 167.153 295.72 176.652 305.24 174.871C314.76 173.09 317.14 167.153 317.14 167.153C317.14 167.153 324.28 170.122 324.875 170.122C325.47 170.122 333.204 173.09 333.204 174.871C333.204 176.652 324.28 194.463 324.28 194.463L325.47 226.521L281.44 225.334L284.415 193.869L280.845 169.528Z" fill="#ACADEA"/>
<path d="M274.3 184.964C274.3 184.964 270.73 216.429 273.11 218.804C275.49 221.178 285.01 227.709 285.01 227.709V220.585L280.25 211.68L285.01 190.901L274.3 184.964Z" fill="#FFB9B9"/>
<path d="M335.882 184.073C335.882 184.073 333.799 216.429 333.799 217.616C333.799 218.804 328.445 222.96 326.66 222.96C324.875 222.96 323.685 219.991 323.685 219.991L327.85 215.242L324.875 190.901L335.882 184.073Z" fill="#FFB9B9"/>
<path d="M330.229 229.49C330.229 229.49 357.004 214.648 357.599 229.49C358.194 244.332 343.914 250.269 343.914 250.269C343.914 250.269 307.025 261.306 305.537 257.272C304.05 253.237 301.075 246.707 303.455 246.113C305.835 245.519 308.81 244.332 310 245.519C311.19 246.707 326.064 236.614 326.064 236.614L330.229 229.49Z" fill="#2F2E41"/>
<path opacity="0.2" d="M342.724 227.709C342.724 227.709 337.369 230.084 335.584 231.865C333.799 233.646 326.064 236.614 326.064 236.614" stroke="black" stroke-width="2" stroke-miterlimit="10"/>
<path d="M284.415 170.715L280.845 169.528C280.845 169.528 267.755 183.183 271.92 186.745C276.085 190.307 278.465 191.494 279.655 192.682C280.845 193.869 286.795 194.463 286.795 194.463L284.415 170.715Z" fill="#ACADEA"/>
<path d="M327.849 173.684L333.204 174.871C333.204 174.871 337.369 183.777 338.559 184.964C339.749 186.151 336.774 185.558 334.989 187.932C333.204 190.307 331.419 194.463 327.849 194.463C324.279 194.463 319.52 188.526 319.52 188.526L327.849 173.684Z" fill="#ACADEA"/>
<path d="M282.035 234.833C282.035 234.833 259.425 218.804 251.691 230.677C243.956 242.551 285.01 258.58 290.96 260.955C296.91 263.33 302.265 265.705 302.265 265.705C302.265 265.705 307.62 252.644 307.62 250.269C307.62 247.894 303.455 247.894 302.265 247.894C301.075 247.894 295.72 246.707 294.53 244.926C293.34 243.145 282.035 234.833 282.035 234.833Z" fill="#2F2E41"/>
<path opacity="0.2" d="M269.541 230.677C269.541 230.677 275.49 235.427 280.845 236.614C286.2 237.802 287.985 240.77 287.985 240.77" stroke="black" stroke-width="2" stroke-miterlimit="10"/>
<path d="M277.931 208.355L278.406 233.492C278.422 234.322 278.766 235.113 279.363 235.691C279.96 236.269 280.762 236.588 281.595 236.579L328.476 236.053C329.275 236.045 330.04 235.733 330.618 235.183C331.196 234.633 331.543 233.884 331.589 233.088L333.012 208.477C333.037 208.049 332.974 207.621 332.827 207.218C332.679 206.816 332.452 206.447 332.157 206.136C331.862 205.824 331.507 205.576 331.112 205.406C330.718 205.237 330.293 205.149 329.863 205.149H281.084C280.665 205.149 280.25 205.232 279.863 205.394C279.477 205.556 279.127 205.793 278.833 206.092C278.539 206.39 278.308 206.744 278.153 207.133C277.999 207.521 277.923 207.937 277.931 208.355Z" fill="#575A89"/>
<path d="M302.996 131.003C302.996 131.003 303.758 133.539 299.438 135.821C295.117 138.104 293.846 146.727 298.929 149.263C304.013 151.799 305.538 155.096 302.996 157.378C300.454 159.661 295.879 165.748 301.979 167.269C308.079 168.791 308.842 171.834 307.063 173.102C305.283 174.37 311.129 170.82 311.129 170.82C311.129 170.82 312.146 176.906 317.484 175.385C322.821 173.863 328.147 146.203 322.197 139.078C316.665 132.454 302.996 131.003 302.996 131.003Z" fill="#2F2E41"/>
<path d="M301.372 128.392C301.373 124.677 312.514 127.346 317.291 132.534C320.598 136.127 325.622 141.531 321.412 145.341C317.202 149.151 328.628 154.145 331.693 155.659C334.757 157.173 340.807 161.804 335.344 164.91C329.881 168.017 329.969 171.153 332.025 171.895C334.081 172.637 327.492 170.791 327.492 170.791C327.492 170.791 328.158 176.926 322.607 176.896C317.056 176.867 301.13 146.427 304.935 137.966C308.472 130.099 301.372 128.392 301.372 128.392Z" fill="#2F2E41"/>
<path d="M303.786 127.578C288.888 126.683 287.393 137.872 287.393 137.872C287.496 144.348 297.801 141.193 300.664 142.158C304.117 139.679 310.774 134.989 315.534 131.642C312.078 129.214 308.006 127.805 303.786 127.578Z" fill="#2F2E41"/>
<path d="M299.541 198.98C299.541 198.98 286.177 136.487 202.533 91.1539" stroke="#3F3D56" stroke-width="2" stroke-miterlimit="10"/>
<path d="M205.979 89.7908L206.147 90.4759L202.763 91.2946L203.829 94.6021L203.156 94.8173L201.859 90.7888L205.979 89.7908Z" fill="#3F3D56"/>
<path d="M24.1745 262.834C24.1745 270.749 19.459 273.512 13.6417 273.512C13.5069 273.512 13.3724 273.511 13.238 273.508C12.9685 273.502 12.7015 273.489 12.4378 273.471C7.18776 273.101 3.10889 270.195 3.10889 262.834C3.10889 255.216 12.8652 245.603 13.598 244.892L13.5993 244.891C13.6276 244.863 13.6417 244.85 13.6417 244.85C13.6417 244.85 24.1745 254.919 24.1745 262.834Z" fill="#ACADEA"/>
<path d="M13.2579 272.302L17.1103 266.931L13.2483 272.891L13.2381 273.508C12.9685 273.502 12.7016 273.489 12.4378 273.471L12.853 265.553L12.8498 265.491L12.8569 265.48L12.896 264.732L9.02441 258.756L12.9082 264.171L12.9172 264.33L13.231 258.346L9.91644 252.172L13.2714 257.296L13.5981 244.892L13.5993 244.85V244.891L13.5448 254.672L16.8446 250.794L13.5313 255.515L13.4441 260.872L16.525 255.731L13.4312 261.66L13.3824 264.638L17.8553 257.483L13.3658 265.677L13.2579 272.302Z" fill="#3F3D56"/>
<path d="M74.4131 260.783L76.6662 259.113C76.6662 259.113 78.1576 267.425 76.4934 268.671C74.8292 269.916 68.5884 271.992 68.5884 274.483C68.5884 276.974 54.4425 280.295 54.0265 276.559C53.6104 272.822 55.2746 270.747 55.2746 270.747C55.2746 270.747 61.9315 264.104 62.7636 262.859C63.5957 261.614 65.676 259.123 65.676 259.123L74.4131 260.783Z" fill="#2F2E41"/>
<path d="M41.1289 157.414C41.1289 157.414 41.1913 157.779 41.2995 158.447C41.3994 159.041 41.5366 159.88 41.7031 160.913C43.4505 171.553 48.5472 202.875 48.2018 203.909C47.7858 205.155 44.8734 209.721 48.2018 210.967C48.5222 211.087 48.8675 211.477 49.2378 212.092C49.9525 213.415 50.5417 214.802 50.9977 216.235C52.9823 221.98 55.1042 231.175 56.3315 237.544C56.8682 240.342 57.2343 242.592 57.3425 243.771C57.3801 244.043 57.3843 244.319 57.355 244.593C56.9389 246.253 59.8513 252.065 61.0995 253.726C62.3476 255.386 64.4279 257.047 64.0118 258.707C63.5958 260.368 74.4132 264.935 75.6614 262.029C76.9095 259.123 76.9095 257.462 77.3256 256.632C77.7416 255.801 78.1577 249.99 76.0774 249.159C73.9971 248.329 75.2453 233.799 73.165 230.893C72.4702 229.926 71.4093 226.65 70.2984 222.711C69.8616 221.166 69.4205 219.523 68.9878 217.874C67.2321 211.12 65.6761 204.324 65.6761 204.324L66.0921 155.753L43.2092 152.847L42.6226 154.138L41.4534 156.7L41.1289 157.414Z" fill="#2F2E41"/>
<path d="M39.8806 237.12C39.8806 237.12 36.5522 233.799 34.8879 237.12C33.2237 240.441 31.5595 253.311 28.6471 256.217C25.7348 259.123 21.9903 273.652 26.1508 274.483C30.3114 275.313 34.8879 273.237 35.304 270.747C35.72 268.256 44.4571 255.386 44.4571 254.141C44.4571 252.896 38.6324 248.329 38.6324 248.329L39.8806 237.12Z" fill="#2F2E41"/>
<path d="M91.0553 134.581C91.0553 134.581 85.6466 183.152 84.3985 187.719C83.1503 192.285 76.4935 209.721 74.4132 212.627C72.3329 215.533 59.0192 239.196 57.355 240.441C55.6908 241.687 52.3624 245.008 52.3624 245.008C52.3624 245.008 46.1216 251.235 45.2894 252.48C44.4573 253.726 37.3844 249.99 36.9684 247.499C36.5523 245.008 37.3844 240.857 37.8005 239.196C38.2165 237.536 36.9684 235.045 38.2165 233.799C39.4647 232.554 45.7055 226.327 45.7055 223.421C45.7055 220.515 56.5229 203.494 60.6834 199.758C64.844 196.022 64.0119 189.795 64.0119 189.795V164.471L41.1289 157.414C41.1289 157.414 42.3771 137.487 45.2894 137.487C48.2018 137.487 86.4787 130.845 91.0553 134.581Z" fill="#2F2E41"/>
<path d="M57.3548 65.2531C64.9375 65.2531 71.0845 59.1196 71.0845 51.5536C71.0845 43.9875 64.9375 37.854 57.3548 37.854C49.772 37.854 43.625 43.9875 43.625 51.5536C43.625 59.1196 49.772 65.2531 57.3548 65.2531Z" fill="#9F616A"/>
<path d="M61.9313 62.3472C61.9313 62.3472 63.5956 68.5742 65.6758 70.2348C67.7561 71.8954 60.2671 78.9527 60.2671 78.9527L46.1213 79.783L43.625 71.8954C43.625 71.8954 48.2016 62.7623 46.9534 56.9504C45.7053 51.1384 61.9313 62.3472 61.9313 62.3472Z" fill="#9F616A"/>
<path d="M67.7563 69.4044C67.7563 69.4044 64.0119 69.8196 63.1797 71.065C62.3476 72.3104 56.5229 76.0466 51.9463 75.2164C47.3697 74.3861 44.4573 73.1407 43.6252 73.5558C42.7931 73.9709 41.1289 82.6888 41.1289 82.6888L45.7055 95.9733L44.8734 132.505L43.6252 142.469C43.6252 142.469 41.1289 139.148 51.1142 141.223C61.0995 143.299 73.9971 139.563 78.1577 139.148C82.3182 138.732 89.3911 137.487 89.8072 134.996C90.2233 132.505 88.559 123.372 88.559 123.372L81.9022 95.5581L77.7416 80.6131L67.7563 69.4044Z" fill="#ACADEA"/>
<path d="M63.8208 67.5308C63.8208 67.5308 67.3402 65.6683 68.5883 67.3288C69.8365 68.9894 85.6465 71.4802 85.6465 72.7256C85.6465 73.971 88.9749 107.597 88.1428 110.503C87.3107 113.409 89.8071 116.73 89.8071 116.73L92.7194 129.184C92.7194 129.184 100.624 152.847 97.296 153.678C93.9676 154.508 91.0552 153.678 89.8071 153.678C88.5589 153.678 88.9749 137.902 85.6465 133.751C82.3181 129.6 77.7415 119.221 76.9094 117.145C76.0773 115.07 65.6759 86.4252 66.092 83.1041C66.508 79.783 63.8208 67.5308 63.8208 67.5308Z" fill="#D0CDE1"/>
<path d="M46.5375 69.4044C46.5375 69.4044 43.2091 69.4044 42.793 70.2347C42.3769 71.065 38.2164 76.4618 36.5522 77.7072C34.888 78.9526 29.0632 84.3494 29.0632 85.5948C29.0632 86.8402 41.1288 95.9733 41.1288 95.9733C41.1288 95.9733 46.1214 120.466 43.6251 128.769C41.1288 137.072 37.3843 156.999 39.0485 158.244C40.7127 159.489 44.4572 159.905 44.4572 158.244C44.4572 156.583 46.9535 138.732 49.0338 134.996C51.1141 131.26 57.3549 107.597 54.8586 100.955C52.3622 94.3127 46.5375 69.4044 46.5375 69.4044Z" fill="#D0CDE1"/>
<path d="M101.457 110.503C101.457 110.503 101.873 123.372 97.296 130.015C92.7194 136.657 89.8071 144.129 89.8071 144.129C89.8071 144.129 82.3181 142.054 81.0699 139.563C79.8218 137.072 71.9167 139.148 71.9167 138.317C71.9167 137.487 81.486 133.336 82.3181 132.505C83.1502 131.675 86.0626 131.675 87.7268 130.015C89.391 128.354 89.8071 124.618 89.8071 124.618L91.4713 113.824L101.457 110.503Z" fill="#9F616A"/>
<path d="M66.8111 43.1068C67.8674 43.011 68.9567 42.9057 69.8902 42.4034C71.9819 41.2778 72.5366 38.0726 70.9443 36.3123C70.5052 35.8645 70.0142 35.4705 69.4816 35.1388L66.319 32.9909C64.9203 32.041 63.4885 31.0755 61.8571 30.6276C60.3816 30.2226 58.8231 30.2642 57.2957 30.3589C54.3306 30.5428 51.3471 30.9227 48.5583 31.9442C45.7694 32.9657 43.1678 34.6746 41.4788 37.1132C38.8011 40.9791 38.7643 46.1929 40.2391 50.6559C41.7139 55.1189 44.5153 59.0052 47.2757 62.8128L48.708 55.8396C48.8356 55.2185 49.0005 54.5378 49.5182 54.1703C50.8049 53.2566 52.3789 55.1325 53.958 55.1203C54.9727 55.1125 55.8246 54.2797 56.2092 53.3428C56.5937 52.4058 56.619 51.3682 56.708 50.3596C56.8964 48.2234 57.6448 45.2509 59.6723 44.0728C61.5616 42.9749 64.6875 43.2992 66.8111 43.1068Z" fill="#2F2E41"/>
<path opacity="0.1" d="M66.041 157.749C66.041 157.749 64.6358 198.305 63.8037 199.55C62.9716 200.796 63.8037 157.621 63.8037 157.621L66.041 157.749Z" fill="black"/>
<path d="M82.3181 72.7256H85.6465C85.6465 72.7256 99.7924 91.822 98.1282 93.0674C96.4639 94.3128 98.1282 97.6339 98.1282 97.6339L101.457 103.861C101.457 103.861 105.617 107.597 104.369 108.427C103.121 109.258 101.457 112.579 101.457 112.579C101.457 112.579 93.1355 111.333 90.6392 116.315L85.243 109.518L82.3181 72.7256Z" fill="#D0CDE1"/>
<path d="M83.4945 78.868L72.0732 83.574L80.8623 104.811L92.2835 100.105L83.4945 78.868Z" fill="#2F2E41"/>
<path d="M82.156 91.3235C83.4175 90.8037 84.0522 89.4449 83.5737 88.2886C83.0951 87.1322 81.6845 86.6162 80.4229 87.136C79.1614 87.6558 78.5266 89.0146 79.0052 90.1709C79.4838 91.3273 80.8944 91.8433 82.156 91.3235Z" fill="#ACADEA"/>
<path d="M73.9971 105.937C73.9971 105.937 44.0412 130.845 39.0486 122.957C34.0559 115.07 44.4573 108.427 44.4573 108.427C44.4573 108.427 53.6105 108.843 64.0118 102.2L74.4132 97.6339C74.4132 97.6339 83.9088 84.107 87.1446 89.2579C90.3804 94.4088 81.6211 103.374 73.9971 105.937Z" fill="#9F616A"/>
<path d="M33.64 83.9343L29.0634 85.5949V98.049L27.3992 100.54C27.3992 100.54 27.8152 105.522 29.0634 106.767C30.3115 108.012 32.8079 107.597 31.9758 110.503C31.4757 112.398 31.3346 114.369 31.5597 116.315C31.5597 116.315 39.0487 125.863 39.4647 124.618C39.8808 123.372 45.7055 108.012 46.5376 108.012C47.3697 108.012 38.2166 83.9343 38.2166 83.9343H33.64Z" fill="#D0CDE1"/>
<path d="M88.351 146.828C88.351 146.828 92.6529 142.676 90.5019 142.469C88.351 142.261 80.862 138.11 79.6138 140.186C78.3657 142.261 88.351 146.828 88.351 146.828Z" fill="#2F2E41"/>
<path d="M170.169 67.6362C173.484 67.6362 176.171 66.2167 176.171 64.4657C176.171 62.7147 173.484 61.2953 170.169 61.2953C166.855 61.2953 164.167 62.7147 164.167 64.4657C164.167 66.2167 166.855 67.6362 170.169 67.6362Z" fill="#57B894"/>
<path d="M193.117 75.034C179.584 69.9339 166.05 69.9339 152.517 75.034V58.4772C165.756 54.4912 179.879 54.4912 193.117 58.4772V75.034Z" stroke="#3F3D56" stroke-width="2" stroke-miterlimit="10"/>
<path d="M187.469 71.6099C177.701 67.929 167.933 67.929 158.166 71.6099V59.6602C167.72 56.7833 177.914 56.7833 187.469 59.6602V71.6099Z" stroke="#3F3D56" stroke-width="2" stroke-miterlimit="10"/>
<path d="M172.287 66.2271C175.602 66.2271 178.289 64.8077 178.289 63.0567C178.289 61.3057 175.602 59.8862 172.287 59.8862C168.973 59.8862 166.286 61.3057 166.286 63.0567C166.286 64.8077 168.973 66.2271 172.287 66.2271Z" stroke="#3F3D56" stroke-width="2" stroke-miterlimit="10"/>
<path d="M174.582 87.4916C177.83 86.8302 180.178 84.9032 179.827 83.1876C179.477 81.472 176.559 80.6173 173.311 81.2787C170.064 81.9401 167.715 83.8671 168.066 85.5827C168.417 87.2983 171.335 88.153 174.582 87.4916Z" fill="#57B894"/>
<path d="M198.55 90.1609C184.267 87.8642 171.007 90.5646 158.769 98.2621L155.451 82.0398C167.623 75.4926 181.461 72.6746 195.231 73.9385L198.55 90.1609Z" stroke="#3F3D56" stroke-width="2" stroke-miterlimit="10"/>
<path d="M192.329 87.9331C182.021 86.2755 172.45 88.2245 163.618 93.78L161.223 82.0717C170.008 77.3464 179.995 75.3125 189.934 76.2248L192.329 87.9331Z" stroke="#3F3D56" stroke-width="2" stroke-miterlimit="10"/>
<path d="M176.376 85.6882C179.623 85.0268 181.972 83.0999 181.621 81.3842C181.27 79.6686 178.352 78.814 175.105 79.4754C171.857 80.1368 169.509 82.0638 169.86 83.7794C170.21 85.495 173.128 86.3496 176.376 85.6882Z" stroke="#3F3D56" stroke-width="2" stroke-miterlimit="10"/>
<path d="M178.69 104.507C178.811 102.76 176.23 101.158 172.923 100.928C169.616 100.699 166.837 101.928 166.715 103.675C166.593 105.422 169.175 107.024 172.482 107.254C175.788 107.483 178.568 106.253 178.69 104.507Z" fill="#57B894"/>
<path d="M194.86 116.223C181.714 110.198 168.213 109.261 154.357 113.411L155.509 96.8941C168.993 93.8346 183.082 94.8129 196.012 99.7063L194.86 116.223Z" stroke="#3F3D56" stroke-width="2" stroke-miterlimit="10"/>
<path d="M189.463 112.416C179.975 108.067 170.231 107.391 160.23 110.386L161.062 98.4655C170.794 96.2574 180.962 96.9634 190.294 100.495L189.463 112.416Z" stroke="#3F3D56" stroke-width="2" stroke-miterlimit="10"/>
<path d="M180.901 103.248C181.023 101.501 178.441 99.8988 175.134 99.6692C171.827 99.4396 169.048 100.67 168.926 102.416C168.804 104.163 171.386 105.765 174.693 105.995C178 106.224 180.779 104.995 180.901 103.248Z" stroke="#3F3D56" stroke-width="2" stroke-miterlimit="10"/>
<path d="M146.487 75.4183C146.487 75.4183 120.54 71.8763 102.01 82.7117" stroke="#3F3D56" stroke-width="2" stroke-miterlimit="10"/>
<path d="M102.634 79.0706L103.308 79.2833L102.254 82.5943L105.642 83.4007L105.477 84.0865L101.352 83.1034L102.634 79.0706Z" fill="#3F3D56"/>
</g>
<defs>
<clipPath id="clip0">
<rect width="388" height="281" fill="white"/>
</clipPath>
</defs>
</svg>
