<svg width="57" height="57" viewBox="0 0 57 57" fill="none" xmlns="http://www.w3.org/2000/svg">
<g clip-path="url(#clip0)">
<path d="M13.3593 24.9315C14.1676 24.9315 14.8253 25.4822 14.8253 26.1591C14.8253 26.7739 15.3238 27.2724 15.9386 27.2724C16.5535 27.2724 17.0519 26.7739 17.0519 26.1591C17.0519 24.6173 15.9662 23.3084 14.4725 22.8657V22.7109C14.4725 22.0962 13.9741 21.5977 13.3593 21.5977C12.7444 21.5977 12.246 22.0962 12.246 22.7109V22.8657C10.7523 23.3085 9.66663 24.6173 9.66663 26.1591C9.66663 28.0638 11.3231 29.6133 13.3593 29.6133C14.1676 29.6133 14.8253 30.1639 14.8253 30.8408C14.8253 31.5177 14.1676 32.0684 13.3593 32.0684C12.5509 32.0684 11.8932 31.5177 11.8932 30.8408C11.8932 30.226 11.3948 29.7275 10.7799 29.7275C10.165 29.7275 9.66663 30.226 9.66663 30.8408C9.66663 32.3826 10.7523 33.6915 12.246 34.1342V34.2891C12.246 34.9038 12.7444 35.4023 13.3593 35.4023C13.9741 35.4023 14.4725 34.9038 14.4725 34.2891V34.1343C15.9662 33.6915 17.0519 32.3827 17.0519 30.8409C17.0519 28.9362 15.3955 27.3867 13.3593 27.3867C12.5509 27.3867 11.8932 26.8361 11.8932 26.1592C11.8932 25.4823 12.5509 24.9315 13.3593 24.9315Z" fill="white"/>
<path d="M26.7188 28.5C26.7188 26.8079 26.4064 25.1584 25.7902 23.5974C25.5644 23.0254 24.918 22.745 24.3459 22.9706C23.774 23.1962 23.4934 23.8429 23.7191 24.4148C24.2321 25.7145 24.4922 27.0889 24.4922 28.5C24.4922 34.6387 19.498 39.6328 13.3594 39.6328C7.22074 39.6328 2.22656 34.6386 2.22656 28.5C2.22656 22.3614 7.22074 17.3672 13.3594 17.3672C14.762 17.3672 16.1288 17.6244 17.422 18.1313C17.9943 18.356 18.6403 18.0738 18.8648 17.5013C19.0893 16.9289 18.8072 16.283 18.2348 16.0585C16.6816 15.4494 15.0413 15.1406 13.3594 15.1406C5.99302 15.1406 0 21.1336 0 28.5C0 35.8664 5.99302 41.8594 13.3594 41.8594C20.7257 41.8594 26.7188 35.8664 26.7188 28.5Z" fill="white"/>
<path d="M43.6405 24.9315C44.4489 24.9315 45.1066 25.4822 45.1066 26.1591C45.1066 26.7739 45.605 27.2724 46.2199 27.2724C46.8347 27.2724 47.3332 26.7739 47.3332 26.1591C47.3332 24.6173 46.2475 23.3084 44.7538 22.8657V22.7109C44.7538 22.0962 44.2554 21.5977 43.6405 21.5977C43.0257 21.5977 42.5272 22.0962 42.5272 22.7109V22.8657C41.0335 23.3085 39.9479 24.6173 39.9479 26.1591C39.9479 28.0638 41.6043 29.6133 43.6405 29.6133C44.4489 29.6133 45.1066 30.1639 45.1066 30.8408C45.1066 31.5177 44.4489 32.0684 43.6405 32.0684C42.8322 32.0684 42.1744 31.5177 42.1744 30.8408C42.1744 30.226 41.676 29.7275 41.0612 29.7275C40.4463 29.7275 39.9479 30.226 39.9479 30.8408C39.9479 32.3826 41.0335 33.6915 42.5272 34.1342V34.2891C42.5272 34.9038 43.0257 35.4023 43.6405 35.4023C44.2554 35.4023 44.7538 34.9038 44.7538 34.2891V34.1343C46.2475 33.6915 47.3332 32.3827 47.3332 30.8409C47.3332 28.9362 45.6767 27.3867 43.6405 27.3867C42.8322 27.3867 42.1744 26.8361 42.1744 26.1592C42.1744 25.4823 42.8322 24.9315 43.6405 24.9315Z" fill="white"/>
<path d="M43.6406 15.1406C36.2743 15.1406 30.2812 21.1336 30.2812 28.5C30.2812 35.8664 36.2743 41.8594 43.6406 41.8594C51.007 41.8594 57 35.8664 57 28.5C57 21.1336 51.007 15.1406 43.6406 15.1406ZM43.6406 39.6328C37.502 39.6328 32.5078 34.6387 32.5078 28.5C32.5078 22.3613 37.502 17.3672 43.6406 17.3672C49.7793 17.3672 54.7734 22.3613 54.7734 28.5C54.7734 34.6387 49.7793 39.6328 43.6406 39.6328Z" fill="white"/>
<path d="M38.0314 44.8163C37.5966 44.3817 36.8917 44.3817 36.4569 44.8163C36.0221 45.2511 36.0221 45.956 36.4569 46.3908L36.9027 46.8367H17.4092C16.7943 46.8367 16.2959 47.3352 16.2959 47.95C16.2959 48.5647 16.7943 49.0633 17.4092 49.0633H36.9027L36.4569 49.5091C36.0221 49.9439 36.0221 50.6488 36.4569 51.0836C36.6743 51.301 36.9592 51.4097 37.2441 51.4097C37.529 51.4097 37.814 51.301 38.0313 51.0836L40.3776 48.7373C40.8124 48.3026 40.8124 47.5976 40.3776 47.1628L38.0314 44.8163Z" fill="white"/>
<path d="M18.9685 12.1835C19.186 12.4008 19.4708 12.5096 19.7557 12.5096C20.0406 12.5096 20.3256 12.4008 20.5429 12.1835C20.9777 11.7488 20.9777 11.0438 20.5429 10.609L20.0971 10.1631H39.5906C40.2055 10.1631 40.7039 9.6646 40.7039 9.04984C40.7039 8.43509 40.2055 7.93656 39.5906 7.93656H20.0971L20.5429 7.49069C20.9777 7.05596 20.9777 6.35103 20.5429 5.91618C20.1082 5.48155 19.4033 5.48155 18.9684 5.91618L16.6221 8.26253C16.1873 8.69727 16.1873 9.4022 16.6221 9.83704L18.9685 12.1835Z" fill="white"/>
<path d="M21.2313 19.0537C21.0243 19.2608 20.9052 19.548 20.9052 19.8408C20.9052 20.1336 21.0243 20.4208 21.2313 20.6279C21.4384 20.8349 21.7256 20.9541 22.0184 20.9541C22.3112 20.9541 22.5985 20.835 22.8055 20.6279C23.0126 20.4208 23.1317 20.1336 23.1317 19.8408C23.1317 19.548 23.0126 19.2608 22.8055 19.0537C22.5985 18.8457 22.3112 18.7275 22.0184 18.7275C21.7256 18.7275 21.4384 18.8457 21.2313 19.0537Z" fill="white"/>
</g>
<defs>
<clipPath id="clip0">
<rect width="57" height="57" fill="white"/>
</clipPath>
</defs>
</svg>
