<svg width="48" height="15" viewBox="0 0 48 15" fill="none" xmlns="http://www.w3.org/2000/svg">
<g clip-path="url(#clip0)">
<path d="M19.153 0.245972L16.722 14.511H20.61L23.043 0.245972H19.153Z" fill="white"/>
<path d="M13.4621 0.260986L9.65406 9.98999L9.24806 8.52099C8.01037 6.10592 6.15119 4.06449 3.86206 2.60699L7.34406 14.507L11.4581 14.5L17.5811 0.260986H13.4621Z" fill="white"/>
<path d="M7.772 1.28201C7.67685 0.917033 7.45301 0.598733 7.14172 0.385753C6.83043 0.172774 6.45266 0.0794628 6.078 0.123012H0.05L0 0.407013C4.691 1.54501 7.8 4.28701 9.083 7.58401L7.772 1.28201Z" fill="white"/>
<path d="M30.9229 2.97999C31.9203 2.95778 32.9114 3.14374 33.8329 3.52599L34.1839 3.69099L34.7099 0.598986C33.5936 0.194521 32.4143 -0.00862894 31.2269 -0.00101432C27.3849 -0.00101432 24.6769 1.93399 24.6559 4.70699C24.6309 6.75599 26.5849 7.89998 28.0609 8.58298C29.5759 9.28298 30.0839 9.72799 30.0769 10.353C30.0649 11.308 28.8689 11.746 27.7519 11.746C26.4903 11.7835 25.2371 11.5278 24.0909 10.999L23.5909 10.771L23.0439 13.964C24.4306 14.4752 25.898 14.7327 27.3759 14.724C31.4629 14.724 34.1189 12.812 34.1469 9.84899C34.1639 8.22799 33.1269 6.99099 30.8799 5.97599C29.5199 5.31399 28.6879 4.87599 28.6959 4.20599C28.6949 3.61399 29.3999 2.97999 30.9229 2.97999Z" fill="white"/>
<path d="M44.688 0.261006H41.688C41.2647 0.205572 40.835 0.291746 40.4658 0.506095C40.0966 0.720444 39.8087 1.05092 39.647 1.44601L33.874 14.519H37.957C37.957 14.519 38.623 12.761 38.774 12.376L43.753 12.382C43.869 12.882 44.227 14.519 44.227 14.519H47.834L44.688 0.261006ZM39.893 9.45601C40.213 8.63701 41.442 5.46901 41.442 5.46901C41.421 5.50801 41.759 4.64401 41.96 4.10701L42.222 5.33701L43.122 9.45601H39.893Z" fill="white"/>
</g>
<defs>
<clipPath id="clip0">
<rect width="47.834" height="14.725" fill="white"/>
</clipPath>
</defs>
</svg>
