<svg width="26" height="30" viewBox="0 0 26 30" fill="none" xmlns="http://www.w3.org/2000/svg">
<g clip-path="url(#clip0)">
<path d="M-1.14441e-05 14.674C-1.14441e-05 14.474 0.444654 14.0107 1.33399 13.284C1.81316 12.7993 2.39372 12.4267 3.03399 12.193C3.42132 12.193 3.74799 12.5044 4.01399 13.127C4.24656 13.6118 4.38243 14.1373 4.41399 14.674C4.38243 15.2108 4.24656 15.7363 4.01399 16.221C3.74732 16.8437 3.42066 17.155 3.03399 17.155C2.39372 16.9213 1.81316 16.5488 1.33399 16.064C0.444654 15.3367 -1.14441e-05 14.8734 -1.14441e-05 14.674ZM4.91299 18.709C5.05191 18.5 5.20353 18.2996 5.36699 18.109C5.72496 17.6388 6.02919 17.13 6.27399 16.592C6.57254 15.9959 6.72799 15.3383 6.72799 14.6715C6.72799 14.0048 6.57254 13.3472 6.27399 12.751C6.0295 12.2151 5.72524 11.7086 5.36699 11.241C5.19914 11.0523 5.04728 10.85 4.91299 10.636C4.91299 10.4567 5.36666 9.99004 6.27399 9.23604C6.75457 8.75058 7.33073 8.37021 7.96599 8.11904C8.11833 8.11724 8.26628 8.17011 8.38299 8.26804C9.33012 9.06341 10.0827 10.065 10.583 11.196C11.097 12.2857 11.3698 13.4734 11.383 14.678C11.3685 15.8826 11.0957 17.07 10.583 18.16C10.0836 19.2917 9.3309 20.2934 8.38299 21.088C8.26628 21.186 8.11833 21.2388 7.96599 21.237C7.33171 20.9812 6.75706 20.5972 6.27799 20.109C5.37066 19.357 4.91699 18.8904 4.91699 18.709H4.91299ZM9.84799 22.789C9.8553 22.6614 9.90653 22.5402 9.99299 22.446C11.0916 21.3225 12.0335 20.0557 12.793 18.68C13.4111 17.4388 13.7199 16.0664 13.693 14.68C13.6899 13.8153 13.555 12.9561 13.293 12.132C13.0597 11.355 12.7368 10.6076 12.331 9.90504C11.9872 9.31833 11.6116 8.75081 11.206 8.20504C10.8313 7.70704 10.5107 7.31371 10.244 7.02504C10.0976 6.88213 9.96377 6.72689 9.84399 6.56104C9.84399 6.39171 10.2977 5.93371 11.205 5.18704C11.6848 4.70153 12.2594 4.31995 12.893 4.06604C13.0399 4.06619 13.1818 4.11906 13.293 4.21504C14.8747 5.51066 16.1459 7.14439 17.013 8.99604C17.8726 10.7662 18.3253 12.7063 18.338 14.674C18.3253 16.6418 17.8726 18.5819 17.013 20.352C16.1459 22.2037 14.8747 23.8374 13.293 25.133C13.1818 25.229 13.0399 25.2819 12.893 25.282C12.2623 25.0275 11.6905 24.6463 11.213 24.162C10.3057 23.4147 9.85199 22.9567 9.85199 22.788L9.84799 22.789ZM14.765 26.838C14.7689 26.7751 14.7854 26.7136 14.8133 26.6571C14.8413 26.6006 14.8803 26.5503 14.928 26.509C16.6755 24.9262 18.1295 23.047 19.223 20.958C20.1923 19.0062 20.6874 16.8532 20.668 14.674C20.6912 12.495 20.1966 10.3416 19.225 8.39104C18.1309 6.3036 16.6785 4.42468 14.934 2.84004C14.8864 2.79873 14.8475 2.74837 14.8195 2.69189C14.7915 2.63542 14.775 2.57394 14.771 2.51104C14.771 2.34171 15.2247 1.88104 16.132 1.12904C16.6112 0.641319 17.1854 0.257069 17.819 4.45077e-05C17.9713 -0.00175571 18.1193 0.0511074 18.236 0.149045C20.443 1.95717 22.2269 4.22711 23.462 6.79904C24.668 9.24979 25.3009 11.9427 25.313 14.674C25.3009 17.4054 24.668 20.0983 23.462 22.549C22.2269 25.121 20.443 27.3909 18.236 29.199C18.1193 29.297 17.9713 29.3498 17.819 29.348C17.1846 29.0919 16.61 28.7075 16.131 28.219C15.2237 27.467 14.77 27.0064 14.77 26.837L14.765 26.838Z" fill="white"/>
</g>
<defs>
<clipPath id="clip0">
<rect width="25.313" height="29.349" fill="white"/>
</clipPath>
</defs>
</svg>
