<svg width="710" height="515" viewBox="0 0 710 515" fill="none" xmlns="http://www.w3.org/2000/svg">
<path d="M304.286 481.634C437.372 481.634 545.259 373.817 545.259 240.817C545.259 107.817 437.372 0 304.286 0C171.2 0 63.3121 107.817 63.3121 240.817C63.3121 373.817 171.2 481.634 304.286 481.634Z" fill="#F2F2F2"/>
<path d="M95.6142 515C148.42 515 191.228 508.155 191.228 499.712C191.228 491.268 148.42 484.423 95.6142 484.423C42.8079 484.423 0 491.268 0 499.712C0 508.155 42.8079 515 95.6142 515Z" fill="#F2F2F2"/>
<path d="M562.056 499.459C643.763 499.459 710 488.868 710 475.804C710 462.739 643.763 452.148 562.056 452.148C480.349 452.148 414.113 462.739 414.113 475.804C414.113 488.868 480.349 499.459 562.056 499.459Z" fill="#F2F2F2"/>
<path d="M529.186 248.425C529.186 248.425 530.446 252.621 523.308 256.397C516.171 260.174 514.071 274.439 522.468 278.635C530.865 282.831 533.385 288.285 529.186 292.061C524.988 295.837 517.43 305.907 527.507 308.425C537.583 310.942 538.843 315.977 535.904 318.075C532.965 320.173 542.621 314.299 542.621 314.299C542.621 314.299 544.301 324.369 553.117 321.851C561.934 319.334 586.705 271.502 574.11 264.789C561.514 258.076 529.186 248.425 529.186 248.425Z" fill="#2F2E41"/>
<path d="M544.403 288.94C544.403 288.94 548.758 304.173 541.137 305.261C536.407 305.997 531.926 307.864 528.072 310.701L542.226 329.198H568.356L584.688 312.877C584.688 312.877 562.913 296.556 567.268 286.764C571.623 276.971 544.403 288.94 544.403 288.94Z" fill="#FFB9B9"/>
<path opacity="0.1" d="M544.403 288.94C544.403 288.94 548.758 304.173 541.137 305.261C536.407 305.997 531.926 307.864 528.072 310.701L542.226 329.198H568.356L584.688 312.877C584.688 312.877 562.913 296.556 567.268 286.764C571.623 276.971 544.403 288.94 544.403 288.94Z" fill="black"/>
<path d="M550.936 478.263L575.978 486.968L593.398 488.055L592.309 472.823L556.38 462.203L550.936 478.263Z" fill="#FFB9B9"/>
<path d="M583.055 474.999C583.055 474.999 583.055 490.232 585.232 490.232C587.41 490.232 616.807 486.967 625.517 490.232C634.227 493.496 647.292 481.527 640.76 474.999C634.227 468.47 623.571 458.678 616.923 460.854C610.274 463.03 583.055 468.47 583.055 468.47V474.999Z" fill="#575A89"/>
<path d="M503.03 460.854C503.03 460.854 489.965 486.967 498.675 489.144C507.385 491.32 517.184 488.055 518.273 486.967C519.362 485.879 534.604 481.527 536.782 483.703C538.959 485.879 538.96 474.999 538.96 474.999L503.03 460.854Z" fill="#575A89"/>
<path d="M513.918 424.948C513.918 424.948 493.231 453.237 508.474 460.854C523.717 468.47 596.664 468.47 602.108 460.854C607.552 453.237 609.73 429.3 602.108 427.124C594.487 424.948 513.918 424.948 513.918 424.948Z" fill="#2F2E41"/>
<path opacity="0.2" d="M513.918 424.948C513.918 424.948 493.231 453.237 508.474 460.854C523.717 468.47 596.664 468.47 602.108 460.854C607.552 453.237 609.73 429.3 602.108 427.124C594.487 424.948 513.918 424.948 513.918 424.948Z" fill="black"/>
<path d="M553.114 296.556C566.944 296.556 578.155 285.352 578.155 271.531C578.155 257.709 566.944 246.505 553.114 246.505C539.283 246.505 528.072 257.709 528.072 271.531C528.072 285.352 539.283 296.556 553.114 296.556Z" fill="#FFB9B9"/>
<path d="M513.918 310.701L535.693 306.349C535.693 306.349 541.137 323.758 558.557 320.494C575.978 317.229 580.333 306.349 580.333 306.349C580.333 306.349 593.398 311.789 594.487 311.789C595.576 311.789 609.73 317.229 609.73 320.494C609.73 323.758 593.398 356.4 593.398 356.4L595.576 415.155L515.007 412.979L520.45 355.312L513.918 310.701Z" fill="#ACADEA"/>
<path d="M501.941 338.991C501.941 338.991 495.409 396.658 499.764 401.01C504.119 405.363 521.539 417.331 521.539 417.331V404.275L512.829 387.954L521.539 349.871L501.941 338.991Z" fill="#FFB9B9"/>
<path d="M614.629 337.359C614.629 337.359 610.819 396.658 610.819 398.834C610.819 401.01 601.02 408.627 597.753 408.627C594.487 408.627 592.309 403.186 592.309 403.186L599.931 394.482L594.487 349.871L614.629 337.359Z" fill="#FFB9B9"/>
<path d="M604.286 420.595C604.286 420.595 653.281 393.394 654.369 420.595C655.458 447.797 629.328 458.678 629.328 458.678C629.328 458.678 561.824 478.906 559.102 471.512C556.38 464.118 550.936 452.149 555.291 451.061C559.646 449.973 565.09 447.797 567.268 449.973C569.445 452.149 596.664 433.652 596.664 433.652L604.286 420.595Z" fill="#2F2E41"/>
<path opacity="0.2" d="M627.15 417.331C627.15 417.331 617.351 421.684 614.085 424.948C610.818 428.212 596.664 433.652 596.664 433.652" stroke="black" stroke-width="2" stroke-miterlimit="10"/>
<path d="M520.45 312.877L513.918 310.701C513.918 310.701 489.965 335.726 497.586 342.255C505.208 348.783 509.563 350.959 511.74 353.136C513.918 355.312 524.805 356.4 524.805 356.4L520.45 312.877Z" fill="#ACADEA"/>
<path d="M599.931 318.317L609.73 320.494C609.73 320.494 617.351 336.815 619.529 338.991C621.706 341.167 616.262 340.079 612.996 344.431C609.73 348.783 606.463 356.4 599.931 356.4C593.398 356.4 584.688 345.519 584.688 345.519L599.931 318.317Z" fill="#ACADEA"/>
<path d="M516.095 430.388C516.095 430.388 474.722 401.01 460.568 422.772C446.414 444.533 521.539 473.911 532.427 478.263C543.315 482.615 553.114 486.967 553.114 486.967C553.114 486.967 562.913 463.03 562.913 458.678C562.913 454.325 555.291 454.325 553.114 454.325C550.936 454.325 541.137 452.149 538.96 448.885C536.782 445.621 516.095 430.388 516.095 430.388Z" fill="#2F2E41"/>
<path opacity="0.2" d="M493.231 422.772C493.231 422.772 504.119 431.476 513.918 433.652C523.717 435.828 526.983 441.269 526.983 441.269" stroke="black" stroke-width="2" stroke-miterlimit="10"/>
<path d="M508.585 381.861L509.455 427.93C509.483 429.452 510.113 430.9 511.206 431.96C512.299 433.02 513.767 433.605 515.289 433.588L601.077 432.625C602.539 432.608 603.94 432.038 604.997 431.029C606.055 430.021 606.689 428.648 606.774 427.19L609.378 382.084C609.423 381.3 609.307 380.515 609.038 379.777C608.769 379.039 608.352 378.364 607.813 377.793C607.273 377.222 606.623 376.767 605.901 376.456C605.18 376.145 604.402 375.985 603.616 375.985H514.355C513.588 375.985 512.828 376.138 512.121 376.434C511.414 376.731 510.773 377.166 510.236 377.713C509.699 378.26 509.276 378.908 508.992 379.621C508.709 380.333 508.57 381.094 508.585 381.861Z" fill="#575A89"/>
<path d="M554.451 240.094C554.451 240.094 555.847 244.742 547.94 248.925C540.033 253.108 537.708 268.912 547.01 273.56C556.312 278.208 559.103 284.25 554.451 288.434C549.8 292.617 541.428 303.772 552.591 306.561C563.754 309.35 565.149 314.927 561.893 317.251C558.637 319.575 569.335 313.068 569.335 313.068C569.335 313.068 571.195 324.224 580.963 321.435C590.73 318.646 600.475 267.951 589.587 254.895C579.464 242.754 554.451 240.094 554.451 240.094Z" fill="#2F2E41"/>
<path d="M551.48 235.309C551.483 228.5 571.869 233.393 580.609 242.901C586.662 249.485 595.855 259.39 588.151 266.372C580.448 273.355 601.356 282.508 606.963 285.283C612.571 288.058 623.642 296.545 613.646 302.238C603.649 307.931 603.81 313.678 607.572 315.039C611.334 316.4 599.277 313.016 599.277 313.016C599.277 313.016 600.496 324.259 590.338 324.205C580.18 324.151 551.037 268.363 557.999 252.856C564.472 238.437 551.48 235.309 551.48 235.309Z" fill="#2F2E41"/>
<path d="M555.896 233.817C528.635 232.177 525.898 252.684 525.898 252.684C526.087 264.552 544.946 258.769 550.183 260.538C556.503 255.996 568.683 247.4 577.395 241.266C571.07 236.815 563.62 234.234 555.896 233.817Z" fill="#2F2E41"/>
<path d="M548.129 364.679C548.129 364.679 523.675 250.146 370.614 167.061" stroke="#3F3D56" stroke-width="2" stroke-miterlimit="10"/>
<path d="M376.921 164.563L377.227 165.819L371.036 167.319L372.986 173.381L371.755 173.776L369.381 166.392L376.921 164.563Z" fill="#3F3D56"/>
<path d="M44.2366 481.706C44.2366 496.212 35.6078 501.277 24.9627 501.277C24.7161 501.277 24.4699 501.274 24.2241 501.269C23.7308 501.258 23.2423 501.235 22.7597 501.202C13.1527 500.523 5.68876 495.197 5.68876 481.706C5.68876 467.744 23.5418 450.127 24.8828 448.823L24.8852 448.821C24.9369 448.77 24.9627 448.746 24.9627 448.746C24.9627 448.746 44.2366 467.2 44.2366 481.706Z" fill="#ACADEA"/>
<path d="M24.2605 499.058L31.3098 489.214L24.2428 500.139L24.2241 501.269C23.7308 501.258 23.2423 501.235 22.7597 501.202L23.5195 486.689L23.5136 486.576L23.5265 486.555L23.5982 485.184L16.5135 474.233L23.6204 484.156L23.6369 484.447L24.2111 473.482L18.1458 462.165L24.2851 471.557L24.8828 448.823L24.8852 448.746V448.821L24.7854 466.748L30.8237 459.641L24.7607 468.292L24.601 478.11L30.2389 468.688L24.5775 479.555L24.4883 485.013L32.6732 471.899L24.4578 486.918L24.2605 499.058Z" fill="#3F3D56"/>
<path d="M136.168 477.948L140.291 474.887C140.291 474.887 143.02 490.121 139.975 492.404C136.93 494.686 125.51 498.491 125.51 503.056C125.51 507.621 99.6243 513.707 98.8629 506.86C98.1016 500.012 101.147 496.208 101.147 496.208C101.147 496.208 113.328 484.035 114.851 481.752C116.374 479.47 120.18 474.904 120.18 474.904L136.168 477.948Z" fill="#2F2E41"/>
<path d="M75.2615 288.499C75.2615 288.499 75.3757 289.168 75.5736 290.393C75.7564 291.481 76.0076 293.018 76.3122 294.912C79.5098 314.413 88.8362 371.818 88.2042 373.713C87.4429 375.995 82.1135 384.364 88.2042 386.647C88.7905 386.868 89.4223 387.583 90.0999 388.709C91.4078 391.134 92.4859 393.676 93.3204 396.302C96.9519 406.832 100.835 423.685 103.081 435.356C104.063 440.484 104.733 444.608 104.931 446.769C105 447.268 105.007 447.774 104.954 448.275C104.192 451.318 109.522 461.97 111.806 465.014C114.09 468.057 117.896 471.1 117.135 474.144C116.374 477.187 136.168 485.556 138.452 480.23C140.736 474.905 140.736 471.861 141.498 470.339C142.259 468.818 143.02 458.166 139.214 456.644C135.407 455.123 137.691 428.493 133.884 423.167C132.613 421.395 130.672 415.392 128.639 408.171C127.839 405.341 127.032 402.328 126.24 399.307C123.028 386.929 120.18 374.474 120.18 374.474L120.942 285.455L79.0682 280.129L77.9948 282.496L75.8554 287.19L75.2615 288.499Z" fill="#2F2E41"/>
<path d="M72.9775 434.58C72.9775 434.58 66.8869 428.493 63.8415 434.58C60.7962 440.667 57.7508 464.253 52.4215 469.579C47.0921 474.904 40.2401 501.534 47.8535 503.056C55.4668 504.577 63.8415 500.773 64.6028 496.208C65.3642 491.643 81.3522 468.057 81.3522 465.774C81.3522 463.492 70.6935 455.123 70.6935 455.123L72.9775 434.58Z" fill="#2F2E41"/>
<path d="M166.622 246.652C166.622 246.652 156.724 335.671 154.44 344.04C152.156 352.409 139.975 384.364 136.168 389.69C132.362 395.016 107.999 438.384 104.954 440.667C101.908 442.949 95.8176 449.036 95.8176 449.036C95.8176 449.036 84.3975 460.448 82.8749 462.731C81.3522 465.013 68.4095 458.166 67.6482 453.601C66.8868 449.036 68.4095 441.427 69.1708 438.384C69.9322 435.341 67.6482 430.776 69.9322 428.493C72.2162 426.211 83.6362 414.798 83.6362 409.472C83.6362 404.146 103.431 372.952 111.044 366.104C118.658 359.257 117.135 347.844 117.135 347.844V301.433L75.2615 288.499C75.2615 288.499 77.5455 251.978 82.8749 251.978C88.2042 251.978 158.247 239.805 166.622 246.652Z" fill="#2F2E41"/>
<path d="M104.954 119.592C118.829 119.592 130.078 108.351 130.078 94.4843C130.078 80.6176 118.829 69.3765 104.954 69.3765C91.078 69.3765 79.8295 80.6176 79.8295 94.4843C79.8295 108.351 91.078 119.592 104.954 119.592Z" fill="#9F616A"/>
<path d="M113.328 114.266C113.328 114.266 116.374 125.679 120.18 128.722C123.987 131.765 110.283 144.7 110.283 144.7L84.3975 146.221L79.8295 131.765C79.8295 131.765 88.2042 115.027 85.9202 104.375C83.6362 93.7234 113.328 114.266 113.328 114.266Z" fill="#9F616A"/>
<path d="M123.987 127.2C123.987 127.2 117.135 127.961 115.612 130.244C114.09 132.526 103.431 139.374 95.0562 137.852C86.6815 136.33 81.3522 134.048 79.8295 134.809C78.3069 135.57 75.2615 151.547 75.2615 151.547L83.6362 175.894L82.1135 242.848L79.8295 261.108C79.8295 261.108 75.2615 255.022 93.5336 258.826C111.806 262.63 135.407 255.782 143.02 255.022C150.634 254.261 163.576 251.978 164.338 247.413C165.099 242.848 162.054 226.11 162.054 226.11L149.872 175.133L142.259 147.743L123.987 127.2Z" fill="#ACADEA"/>
<path d="M116.786 123.766C116.786 123.766 123.226 120.353 125.51 123.396C127.794 126.44 156.724 131.005 156.724 133.287C156.724 135.57 162.815 197.198 161.292 202.524C159.77 207.85 164.338 213.936 164.338 213.936L169.667 236.761C169.667 236.761 184.132 280.129 178.042 281.651C171.951 283.173 166.622 281.651 164.338 281.651C162.054 281.651 162.815 252.739 156.724 245.131C150.634 237.522 142.259 218.501 140.736 214.697C139.214 210.893 120.18 158.395 120.942 152.308C121.703 146.221 116.786 123.766 116.786 123.766Z" fill="#D0CDE1"/>
<path d="M85.1589 127.2C85.1589 127.2 79.0682 127.2 78.3069 128.722C77.5455 130.244 69.9322 140.135 66.8868 142.417C63.8415 144.7 53.1828 154.591 53.1828 156.873C53.1828 159.156 75.2615 175.894 75.2615 175.894C75.2615 175.894 84.3975 220.784 79.8295 236.001C75.2615 251.217 68.4095 287.738 71.4549 290.02C74.5002 292.303 81.3522 293.064 81.3522 290.02C81.3522 286.977 85.9202 254.261 89.7269 247.413C93.5336 240.566 104.954 197.198 100.386 185.024C95.8176 172.851 85.1589 127.2 85.1589 127.2Z" fill="#D0CDE1"/>
<path d="M185.655 202.524C185.655 202.524 186.416 226.11 178.042 238.283C169.667 250.457 164.338 264.152 164.338 264.152C164.338 264.152 150.634 260.348 148.35 255.782C146.066 251.217 131.6 255.022 131.6 253.5C131.6 251.978 149.111 244.37 150.634 242.848C152.156 241.326 157.486 241.326 160.531 238.283C163.576 235.24 164.338 228.392 164.338 228.392L167.383 208.61L185.655 202.524Z" fill="#9F616A"/>
<path d="M122.258 79.0034C124.191 78.8279 126.184 78.6348 127.892 77.7142C131.72 75.6514 132.735 69.777 129.821 66.551C129.018 65.7301 128.119 65.0081 127.144 64.4001L121.357 60.4637C118.798 58.7227 116.178 56.9531 113.192 56.1324C110.492 55.39 107.641 55.4663 104.846 55.6399C99.4196 55.977 93.9602 56.6731 88.8568 58.5452C83.7535 60.4174 78.9929 63.5494 75.9021 68.0187C71.0022 75.1038 70.9348 84.6595 73.6336 92.8389C76.3323 101.018 81.4587 108.141 86.5099 115.119L89.1308 102.339C89.3643 101.201 89.6662 99.9536 90.6135 99.2799C92.968 97.6055 95.8482 101.043 98.7379 101.021C100.595 101.007 102.154 99.4805 102.857 97.7633C103.561 96.0461 103.607 94.1444 103.77 92.2959C104.115 88.3807 105.484 82.9331 109.194 80.7738C112.652 78.7618 118.372 79.3561 122.258 79.0034Z" fill="#2F2E41"/>
<path opacity="0.1" d="M120.848 289.113C120.848 289.113 118.277 363.441 116.754 365.724C115.232 368.006 116.754 288.879 116.754 288.879L120.848 289.113Z" fill="black"/>
<path d="M150.634 133.287H156.724C156.724 133.287 182.61 168.286 179.564 170.568C176.519 172.851 179.564 178.938 179.564 178.938L185.655 190.35C185.655 190.35 193.268 197.198 190.984 198.719C188.7 200.241 185.655 206.328 185.655 206.328C185.655 206.328 170.428 204.045 165.86 213.175L155.986 200.718L150.634 133.287Z" fill="#D0CDE1"/>
<path d="M152.786 144.544L131.887 153.169L147.97 192.091L168.869 183.466L152.786 144.544Z" fill="#2F2E41"/>
<path d="M150.337 167.372C152.645 166.42 153.807 163.929 152.931 161.81C152.055 159.691 149.474 158.745 147.166 159.698C144.857 160.65 143.696 163.141 144.571 165.26C145.447 167.379 148.028 168.325 150.337 167.372Z" fill="#ACADEA"/>
<path d="M135.407 194.154C135.407 194.154 80.5909 239.805 71.4548 225.349C62.3188 210.893 81.3522 198.719 81.3522 198.719C81.3522 198.719 98.1016 199.48 117.135 187.307L136.168 178.938C136.168 178.938 153.544 154.146 159.466 163.587C165.387 173.027 149.358 189.457 135.407 194.154Z" fill="#9F616A"/>
<path d="M61.5575 153.83L53.1828 156.873V179.698L50.1375 184.263C50.1375 184.263 50.8988 193.394 53.1828 195.676C55.4668 197.959 60.0348 197.198 58.5122 202.524C57.597 205.996 57.3388 209.608 57.7508 213.175C57.7508 213.175 71.4548 230.675 72.2162 228.392C72.9775 226.11 83.6362 197.959 85.1589 197.959C86.6815 197.959 69.9322 153.83 69.9322 153.83H61.5575Z" fill="#D0CDE1"/>
<path d="M161.673 269.097C161.673 269.097 169.545 261.489 165.609 261.108C161.673 260.728 147.969 253.119 145.685 256.924C143.401 260.728 161.673 269.097 161.673 269.097Z" fill="#2F2E41"/>
<path d="M311.392 123.96C317.458 123.96 322.375 121.358 322.375 118.149C322.375 114.94 317.458 112.338 311.392 112.338C305.327 112.338 300.409 114.94 300.409 118.149C300.409 121.358 305.327 123.96 311.392 123.96Z" fill="#57B894"/>
<path d="M353.385 137.518C328.62 128.171 303.855 128.171 279.09 137.518V107.173C303.316 99.868 329.159 99.868 353.385 107.173V137.518Z" stroke="#3F3D56" stroke-width="2" stroke-miterlimit="10"/>
<path d="M343.048 131.242C325.174 124.496 307.301 124.496 289.427 131.242V109.342C306.911 104.069 325.564 104.069 343.048 109.342V131.242Z" stroke="#3F3D56" stroke-width="2" stroke-miterlimit="10"/>
<path d="M315.268 121.377C321.334 121.377 326.251 118.776 326.251 115.567C326.251 112.357 321.334 109.756 315.268 109.756C309.203 109.756 304.286 112.357 304.286 115.567C304.286 118.776 309.203 121.377 315.268 121.377Z" stroke="#3F3D56" stroke-width="2" stroke-miterlimit="10"/>
<path d="M319.468 160.349C325.411 159.137 329.708 155.605 329.066 152.461C328.424 149.317 323.085 147.751 317.142 148.963C311.199 150.175 306.902 153.707 307.544 156.851C308.186 159.995 313.525 161.561 319.468 160.349Z" fill="#57B894"/>
<path d="M363.325 165.241C337.19 161.032 312.925 165.981 290.531 180.089L284.459 150.358C306.733 138.358 332.055 133.194 357.253 135.51L363.325 165.241Z" stroke="#3F3D56" stroke-width="2" stroke-miterlimit="10"/>
<path d="M351.942 161.159C333.079 158.121 315.566 161.693 299.403 171.874L295.021 150.416C311.097 141.756 329.373 138.028 347.559 139.7L351.942 161.159Z" stroke="#3F3D56" stroke-width="2" stroke-miterlimit="10"/>
<path d="M322.749 157.044C328.692 155.832 332.989 152.3 332.347 149.156C331.705 146.012 326.366 144.446 320.423 145.658C314.48 146.87 310.183 150.402 310.825 153.546C311.467 156.69 316.806 158.256 322.749 157.044Z" stroke="#3F3D56" stroke-width="2" stroke-miterlimit="10"/>
<path d="M326.984 191.534C327.206 188.332 322.482 185.396 316.431 184.975C310.38 184.554 305.294 186.808 305.071 190.01C304.848 193.211 309.573 196.147 315.624 196.568C321.675 196.989 326.761 194.735 326.984 191.534Z" fill="#57B894"/>
<path d="M356.573 213.007C332.517 201.964 307.812 200.246 282.458 207.853L284.566 177.582C309.24 171.974 335.022 173.767 358.681 182.736L356.573 213.007Z" stroke="#3F3D56" stroke-width="2" stroke-miterlimit="10"/>
<path d="M346.698 206.03C329.335 198.06 311.505 196.82 293.205 202.31L294.727 180.462C312.535 176.415 331.143 177.709 348.219 184.182L346.698 206.03Z" stroke="#3F3D56" stroke-width="2" stroke-miterlimit="10"/>
<path d="M331.03 189.226C331.253 186.025 326.528 183.089 320.477 182.668C314.426 182.247 309.34 184.501 309.117 187.702C308.895 190.904 313.619 193.84 319.67 194.261C325.721 194.682 330.807 192.428 331.03 189.226Z" stroke="#3F3D56" stroke-width="2" stroke-miterlimit="10"/>
<path d="M268.057 138.222C268.057 138.222 220.575 131.731 186.667 151.589" stroke="#3F3D56" stroke-width="2" stroke-miterlimit="10"/>
<path d="M187.81 144.916L189.043 145.306L187.115 151.374L193.313 152.852L193.011 154.109L185.464 152.307L187.81 144.916Z" fill="#3F3D56"/>
</svg>
